<svg version="1.1" viewBox="0.0 0.0 600.0 371.0" fill="none" stroke="none" stroke-linecap="square" stroke-miterlimit="10" width="600" height="371" xmlns:xlink="http://www.w3.org/1999/xlink" xmlns="http://www.w3.org/2000/svg"><path fill="#ffffff" d="M0 0L600.0 0L600.0 371.0L0 371.0L0 0Z" fill-rule="nonzero"/><path stroke="#333333" stroke-width="1.0" stroke-linecap="butt" d="M106.5 54.5L106.5 298.5" fill-rule="nonzero"/><path stroke="#cccccc" stroke-width="1.0" stroke-linecap="butt" d="M174.5 54.5L174.5 298.5" fill-rule="nonzero"/><path stroke="#cccccc" stroke-width="1.0" stroke-linecap="butt" d="M242.5 54.5L242.5 298.5" fill-rule="nonzero"/><path stroke="#cccccc" stroke-width="1.0" stroke-linecap="butt" d="M310.5 54.5L310.5 298.5" fill-rule="nonzero"/><path stroke="#cccccc" stroke-width="1.0" stroke-linecap="butt" d="M377.5 54.5L377.5 298.5" fill-rule="nonzero"/><path stroke="#cccccc" stroke-width="1.0" stroke-linecap="butt" d="M445.5 54.5L445.5 298.5" fill-rule="nonzero"/><path stroke="#cccccc" stroke-width="1.0" stroke-linecap="butt" d="M513.5 54.5L513.5 298.5" fill-rule="nonzero"/><path stroke="#cccccc" stroke-width="1.0" stroke-linecap="butt" d="M581.5 54.5L581.5 298.5" fill-rule="nonzero"/><clipPath id="id_0"><path d="M106.55 54.916668L581.45 54.916668L581.45 298.45L106.55 298.45L106.55 54.916668Z" clip-rule="nonzero"/></clipPath><path stroke="#000000" stroke-width="2.0" stroke-linecap="butt" stroke-opacity="0.0" clip-path="url(#id_0)" d="M107.0 111.0L107.0 75.0L403.0 75.0C404.10458 75.0 405.0 75.89543 405.0 77.0L405.0 109.0C405.0 110.10457 404.10458 111.0 403.0 111.0Z" fill-rule="nonzero"/><path fill="#006391" clip-path="url(#id_0)" d="M107.0 111.0L107.0 75.0L403.0 75.0C404.10458 75.0 405.0 75.89543 405.0 77.0L405.0 109.0C405.0 110.10457 404.10458 111.0 403.0 111.0Z" fill-rule="nonzero"/><path stroke="#000000" stroke-width="2.0" stroke-linecap="butt" stroke-opacity="0.0" clip-path="url(#id_0)" d="M107.0 167.0L107.0 131.0L363.0 131.0C364.10458 131.0 365.0 131.89543 365.0 133.0L365.0 165.0C365.0 166.10457 364.10458 167.0 363.0 167.0Z" fill-rule="nonzero"/><path fill="#feb929" clip-path="url(#id_0)" d="M107.0 167.0L107.0 131.0L363.0 131.0C364.10458 131.0 365.0 131.89543 365.0 133.0L365.0 165.0C365.0 166.10457 364.10458 167.0 363.0 167.0Z" fill-rule="nonzero"/><path stroke="#000000" stroke-width="2.0" stroke-linecap="butt" stroke-opacity="0.0" clip-path="url(#id_0)" d="M107.0 223.0L107.0 187.0L468.0 187.0C469.10458 187.0 470.0 187.89543 470.0 189.0L470.0 221.0C470.0 222.10457 469.10458 223.0 468.0 223.0Z" fill-rule="nonzero"/><path fill="#28998b" clip-path="url(#id_0)" d="M107.0 223.0L107.0 187.0L468.0 187.0C469.10458 187.0 470.0 187.89543 470.0 189.0L470.0 221.0C470.0 222.10457 469.10458 223.0 468.0 223.0Z" fill-rule="nonzero"/><path stroke="#000000" stroke-width="2.0" stroke-linecap="butt" stroke-opacity="0.0" clip-path="url(#id_0)" d="M107.0 279.0L107.0 243.0L188.0 243.0C189.10457 243.0 190.0 243.89543 190.0 245.0L190.0 277.0C190.0 278.10458 189.10457 279.0 188.0 279.0Z" fill-rule="nonzero"/><path fill="#f5959c" clip-path="url(#id_0)" d="M107.0 279.0L107.0 243.0L188.0 243.0C189.10457 243.0 190.0 243.89543 190.0 245.0L190.0 277.0C190.0 278.10458 189.10457 279.0 188.0 279.0Z" fill-rule="nonzero"/><path fill="#314c59" d="M293.89062 341.84064L291.14062 341.84064L291.14062 349.45L290.03125 349.45L290.03125 341.84064L287.28125 341.84064L287.28125 340.91876L293.89062 340.91876L293.89062 341.84064ZM295.90625 343.8719Q296.625 342.9969 297.78125 342.9969Q299.79688 342.9969 299.8125 345.2625L299.8125 349.45L298.71875 349.45L298.71875 345.2469Q298.71875 344.575 298.40625 344.2469Q298.10938 343.91876 297.45312 343.91876Q296.92188 343.91876 296.51562 344.2Q296.125 344.48126 295.90625 344.9344L295.90625 349.45L294.82812 349.45L294.82812 340.45L295.90625 340.45L295.90625 343.8719ZM304.89062 344.075Q304.64062 344.04376 304.35938 344.04376Q303.28125 344.04376 302.90625 344.95L302.90625 349.45L301.82812 349.45L301.82812 343.10626L302.875 343.10626L302.89062 343.84064Q303.42188 342.9969 304.40625 342.9969Q304.71875 342.9969 304.89062 343.075L304.89062 344.075ZM305.53125 346.21564Q305.53125 345.29376 305.89062 344.54376Q306.26562 343.79376 306.92188 343.40314Q307.57812 342.9969 308.40625 342.9969Q309.70312 342.9969 310.5 343.8875Q311.3125 344.77814 311.3125 346.27814L311.3125 346.35626Q311.3125 347.27814 310.95312 348.0125Q310.59375 348.7469 309.9375 349.16876Q309.28125 349.575 308.42188 349.575Q307.14062 349.575 306.32812 348.6844Q305.53125 347.77814 305.53125 346.29376L305.53125 346.21564ZM306.625 346.35626Q306.625 347.40314 307.10938 348.04376Q307.60938 348.6844 308.42188 348.6844Q309.25 348.6844 309.73438 348.04376Q310.21875 347.3875 310.21875 346.21564Q310.21875 345.1844 309.71875 344.54376Q309.23438 343.8875 308.40625 343.8875Q307.60938 343.8875 307.10938 344.52814Q306.625 345.15314 306.625 346.35626ZM316.73438 348.825Q316.10938 349.575 314.875 349.575Q313.85938 349.575 313.32812 348.98126Q312.79688 348.3875 312.79688 347.23126L312.79688 343.10626L313.875 343.10626L313.875 347.2Q313.875 348.65314 315.04688 348.65314Q316.29688 348.65314 316.70312 347.71564L316.70312 343.10626L317.79688 343.10626L317.79688 349.45L316.76562 349.45L316.73438 348.825ZM319.5625 346.23126Q319.5625 344.7469 320.25 343.8719Q320.9375 342.9969 322.0625 342.9969Q323.21875 342.9969 323.875 343.8094L323.92188 343.10626L324.92188 343.10626L324.92188 349.29376Q324.92188 350.52814 324.1875 351.23126Q323.45312 351.95 322.23438 351.95Q321.54688 351.95 320.89062 351.65314Q320.23438 351.35626 319.89062 350.85626L320.45312 350.2Q321.14062 351.0594 322.15625 351.0594Q322.9375 351.0594 323.375 350.60626Q323.82812 350.16876 323.82812 349.35626L323.82812 348.8094Q323.17188 349.575 322.04688 349.575Q320.9375 349.575 320.25 348.6844Q319.5625 347.77814 319.5625 346.23126ZM320.65625 346.35626Q320.65625 347.41876 321.09375 348.04376Q321.53125 348.65314 322.32812 348.65314Q323.34375 348.65314 323.82812 347.71564L323.82812 344.825Q323.32812 343.91876 322.32812 343.91876Q321.54688 343.91876 321.09375 344.52814Q320.65625 345.1375 320.65625 346.35626ZM327.90625 343.8719Q328.625 342.9969 329.78125 342.9969Q331.79688 342.9969 331.8125 345.2625L331.8125 349.45L330.71875 349.45L330.71875 345.2469Q330.71875 344.575 330.40625 344.2469Q330.10938 343.91876 329.45312 343.91876Q328.92188 343.91876 328.51562 344.2Q328.125 344.48126 327.90625 344.9344L327.90625 349.45L326.82812 349.45L326.82812 340.45L327.90625 340.45L327.90625 343.8719ZM339.17188 346.35626Q339.17188 347.79376 338.51562 348.6844Q337.85938 349.575 336.71875 349.575Q335.5625 349.575 334.90625 348.84064L334.90625 351.8875L333.82812 351.8875L333.82812 343.10626L334.8125 343.10626L334.85938 343.8094Q335.53125 342.9969 336.70312 342.9969Q337.84375 342.9969 338.5 343.85626Q339.17188 344.71564 339.17188 346.2469L339.17188 346.35626ZM338.09375 346.23126Q338.09375 345.15314 337.625 344.54376Q337.17188 343.91876 336.375 343.91876Q335.39062 343.91876 334.90625 344.77814L334.90625 347.8094Q335.39062 348.6844 336.39062 348.6844Q337.17188 348.6844 337.625 348.075Q338.09375 347.45 338.09375 346.23126ZM344.73438 348.825Q344.10938 349.575 342.875 349.575Q341.85938 349.575 341.32812 348.98126Q340.79688 348.3875 340.79688 347.23126L340.79688 343.10626L341.875 343.10626L341.875 347.2Q341.875 348.65314 343.04688 348.65314Q344.29688 348.65314 344.70312 347.71564L344.70312 343.10626L345.79688 343.10626L345.79688 349.45L344.76562 349.45L344.73438 348.825ZM349.29688 341.575L349.29688 343.10626L350.46875 343.10626L350.46875 343.95L349.29688 343.95L349.29688 347.8719Q349.29688 348.2625 349.45312 348.45Q349.60938 348.6375 349.98438 348.6375Q350.17188 348.6375 350.5 348.575L350.5 349.45Q350.07812 349.575 349.67188 349.575Q348.95312 349.575 348.57812 349.1375Q348.20312 348.6844 348.20312 347.8719L348.20312 343.95L347.04688 343.95L347.04688 343.10626L348.20312 343.10626L348.20312 341.575L349.29688 341.575ZM354.78125 345.98126Q354.78125 344.66876 355.125 343.45Q355.48438 342.23126 356.1875 341.23126Q356.89062 340.23126 357.65625 339.825L357.875 340.54376Q357.01562 341.2 356.46875 342.54376Q355.92188 343.8875 355.875 345.5594L355.85938 346.0594Q355.85938 348.325 356.6875 349.98126Q357.1875 350.98126 357.875 351.54376L357.65625 352.2Q356.875 351.77814 356.15625 350.7469Q354.78125 348.7625 354.78125 345.98126ZM360.0 349.45L358.92188 349.45L358.92188 343.10626L360.0 343.10626L360.0 349.45ZM358.82812 341.4344Q358.82812 341.16876 358.98438 340.98126Q359.15625 340.79376 359.46875 340.79376Q359.78125 340.79376 359.9375 340.98126Q360.10938 341.16876 360.10938 341.4344Q360.10938 341.6844 359.9375 341.8719Q359.78125 342.04376 359.46875 342.04376Q359.15625 342.04376 358.98438 341.8719Q358.82812 341.6844 358.82812 341.4344ZM362.84375 343.10626L362.875 343.90314Q363.60938 342.9969 364.78125 342.9969Q366.79688 342.9969 366.8125 345.2625L366.8125 349.45L365.71875 349.45L365.71875 345.2469Q365.71875 344.575 365.40625 344.2469Q365.10938 343.91876 364.45312 343.91876Q363.92188 343.91876 363.51562 344.2Q363.125 344.48126 362.90625 344.9344L362.90625 349.45L361.82812 349.45L361.82812 343.10626L362.84375 343.10626ZM378.29688 348.325Q377.85938 348.95 377.07812 349.2625Q376.29688 349.575 375.26562 349.575Q374.23438 349.575 373.42188 349.09064Q372.60938 348.59064 372.17188 347.6844Q371.73438 346.77814 371.71875 345.59064L371.71875 344.85626Q371.71875 342.91876 372.60938 341.85626Q373.51562 340.79376 375.14062 340.79376Q376.48438 340.79376 377.29688 341.48126Q378.10938 342.16876 378.29688 343.41876L377.17188 343.41876Q376.84375 341.73126 375.15625 341.73126Q374.01562 341.73126 373.4375 342.52814Q372.85938 343.3094 372.84375 344.825L372.84375 345.5125Q372.84375 346.95 373.5 347.8094Q374.15625 348.65314 375.28125 348.65314Q375.90625 348.65314 376.375 348.5125Q376.85938 348.3719 377.17188 348.02814L377.17188 346.1219L375.20312 346.1219L375.20312 345.2L378.29688 345.2L378.29688 348.325ZM379.98438 349.45L379.98438 340.91876L382.78125 340.91876Q384.17188 340.91876 384.85938 341.4969Q385.5625 342.0594 385.5625 343.1844Q385.5625 343.79376 385.21875 344.2625Q384.89062 344.71564 384.29688 344.96564Q385.0 345.15314 385.39062 345.7Q385.79688 346.23126 385.79688 346.98126Q385.79688 348.1375 385.04688 348.79376Q384.3125 349.45 382.95312 349.45L379.98438 349.45ZM381.10938 345.46564L381.10938 348.52814L382.96875 348.52814Q383.76562 348.52814 384.21875 348.1219Q384.67188 347.71564 384.67188 346.9969Q384.67188 345.46564 382.98438 345.46564L381.10938 345.46564ZM381.10938 344.5594L382.8125 344.5594Q383.54688 344.5594 383.98438 344.2Q384.4375 343.825 384.4375 343.1844Q384.4375 342.48126 384.03125 342.16876Q383.625 341.84064 382.78125 341.84064L381.10938 341.84064L381.10938 344.5594ZM387.03125 350.1844L386.10938 350.1844L389.67188 340.91876L390.59375 340.91876L387.03125 350.1844ZM395.51562 347.7625Q395.51562 347.325 395.17188 347.09064Q394.84375 346.84064 394.01562 346.66876Q393.20312 346.4969 392.71875 346.2469Q392.23438 345.9969 392.0 345.66876Q391.78125 345.325 391.78125 344.85626Q391.78125 344.075 392.4375 343.54376Q393.09375 342.9969 394.125 342.9969Q395.20312 342.9969 395.85938 343.5594Q396.53125 344.10626 396.53125 344.96564L395.45312 344.96564Q395.45312 344.52814 395.0625 344.21564Q394.6875 343.8875 394.125 343.8875Q393.53125 343.8875 393.1875 344.15314Q392.85938 344.40314 392.85938 344.8094Q392.85938 345.2 393.17188 345.40314Q393.48438 345.60626 394.29688 345.79376Q395.10938 345.96564 395.60938 346.21564Q396.10938 346.46564 396.34375 346.825Q396.59375 347.1844 396.59375 347.6844Q396.59375 348.54376 395.90625 349.0594Q395.23438 349.575 394.15625 349.575Q393.39062 349.575 392.79688 349.3094Q392.21875 349.02814 391.89062 348.54376Q391.5625 348.0594 391.5625 347.4969L392.64062 347.4969Q392.67188 348.04376 393.07812 348.3719Q393.48438 348.6844 394.15625 348.6844Q394.76562 348.6844 395.14062 348.4344Q395.51562 348.1844 395.51562 347.7625ZM400.32812 346.04376Q400.32812 347.35626 399.98438 348.5594Q399.64062 349.7469 398.92188 350.7625Q398.21875 351.77814 397.45312 352.2L397.21875 351.54376Q398.125 350.85626 398.67188 349.40314Q399.21875 347.9344 399.23438 346.16876L399.23438 345.98126Q399.23438 344.7469 398.96875 343.6844Q398.71875 342.6219 398.25 341.79376Q397.79688 340.95 397.21875 340.48126L397.45312 339.825Q398.21875 340.2469 398.92188 341.2469Q399.625 342.2469 399.96875 343.46564Q400.32812 344.66876 400.32812 346.04376Z" fill-rule="nonzero"/><path fill="#314c59" d="M74.08125 93.97195Q74.08125 93.05007 74.44063 92.30007Q74.81563 91.55007 75.47188 91.15945Q76.12813 90.7532 76.95625 90.7532Q78.25313 90.7532 79.05 91.64382Q79.8625 92.53445 79.8625 94.03445L79.8625 94.11257Q79.8625 95.03445 79.50313 95.76882Q79.14375 96.5032 78.4875 96.92507Q77.83125 97.33132 76.97188 97.33132Q75.69063 97.33132 74.87813 96.4407Q74.08125 95.53445 74.08125 94.05007L74.08125 93.97195ZM75.175 94.11257Q75.175 95.15945 75.65938 95.80007Q76.15938 96.4407 76.97188 96.4407Q77.8 96.4407 78.28438 95.80007Q78.76875 95.14382 78.76875 93.97195Q78.76875 92.9407 78.26875 92.30007Q77.78438 91.64382 76.95625 91.64382Q76.15938 91.64382 75.65938 92.28445Q75.175 92.90945 75.175 94.11257ZM83.90938 96.4407Q84.4875 96.4407 84.925 96.09695Q85.3625 95.73757 85.40938 95.20632L86.44063 95.20632Q86.40938 95.7532 86.05 96.2532Q85.70625 96.73757 85.12813 97.03445Q84.56563 97.33132 83.90938 97.33132Q82.6125 97.33132 81.84688 96.47195Q81.09688 95.59695 81.09688 94.09695L81.09688 93.90945Q81.09688 92.98757 81.425 92.26882Q81.76875 91.55007 82.39375 91.15945Q83.03438 90.7532 83.90938 90.7532Q84.97188 90.7532 85.675 91.39382Q86.39375 92.01882 86.44063 93.05007L85.40938 93.05007Q85.3625 92.42507 84.94063 92.03445Q84.51875 91.64382 83.90938 91.64382Q83.08125 91.64382 82.62813 92.23757Q82.175 92.83132 82.175 93.95632L82.175 94.15945Q82.175 95.2532 82.62813 95.84695Q83.08125 96.4407 83.90938 96.4407ZM92.7375 94.11257Q92.7375 95.5657 92.06563 96.45632Q91.40938 97.33132 90.28438 97.33132Q89.08125 97.33132 88.425 96.47195L88.3625 97.20632L87.37813 97.20632L87.37813 88.20632L88.45625 88.20632L88.45625 91.5657Q89.1125 90.7532 90.26875 90.7532Q91.425 90.7532 92.08125 91.6282Q92.7375 92.48757 92.7375 94.01882L92.7375 94.11257ZM91.65938 93.98757Q91.65938 92.8782 91.22188 92.28445Q90.8 91.67507 90.00313 91.67507Q88.925 91.67507 88.45625 92.65945L88.45625 95.40945Q88.95625 96.40945 90.00313 96.40945Q90.78438 96.40945 91.22188 95.80007Q91.65938 95.1907 91.65938 93.98757ZM95.83125 92.40945L96.64375 92.40945Q97.425 92.39382 97.8625 92.0032Q98.3 91.61257 98.3 90.9407Q98.3 89.4407 96.8 89.4407Q96.09688 89.4407 95.675 89.84695Q95.26875 90.2532 95.26875 90.90945L94.175 90.90945Q94.175 89.89382 94.90938 89.22195Q95.65938 88.55007 96.8 88.55007Q98.00313 88.55007 98.69063 89.1907Q99.37813 89.83132 99.37813 90.97195Q99.37813 91.53445 99.01875 92.05007Q98.65938 92.5657 98.03438 92.83132Q98.7375 93.05007 99.1125 93.5657Q99.50313 94.08132 99.50313 94.83132Q99.50313 95.97195 98.75313 96.65945Q98.00313 97.33132 96.8 97.33132Q95.6125 97.33132 94.84688 96.67507Q94.09688 96.01882 94.09688 94.95632L95.19063 94.95632Q95.19063 95.6282 95.62813 96.03445Q96.06563 96.4407 96.81563 96.4407Q97.59688 96.4407 98.00313 96.03445Q98.425 95.61257 98.425 94.84695Q98.425 94.11257 97.97188 93.72195Q97.51875 93.3157 96.64375 93.30007L95.83125 93.30007L95.83125 92.40945Z" fill-rule="nonzero"/><path fill="#314c59" d="M55.08125 149.95662Q55.08125 149.03474 55.440624 148.28474Q55.815624 147.53474 56.471874 147.14412Q57.128124 146.73787 57.95625 146.73787Q59.253124 146.73787 60.05 147.6285Q60.8625 148.51912 60.8625 150.01912L60.8625 150.09724Q60.8625 151.01912 60.503124 151.7535Q60.14375 152.48787 59.4875 152.90974Q58.83125 153.316 57.971874 153.316Q56.690624 153.316 55.878124 152.42537Q55.08125 151.51912 55.08125 150.03474L55.08125 149.95662ZM56.175 150.09724Q56.175 151.14412 56.659374 151.78474Q57.159374 152.42537 57.971874 152.42537Q58.8 152.42537 59.284374 151.78474Q59.76875 151.1285 59.76875 149.95662Q59.76875 148.92537 59.26875 148.28474Q58.784374 147.6285 57.95625 147.6285Q57.159374 147.6285 56.659374 148.26912Q56.175 148.89412 56.175 150.09724ZM64.90938 152.42537Q65.4875 152.42537 65.925 152.08162Q66.3625 151.72224 66.40938 151.191L67.44063 151.191Q67.40938 151.73787 67.05 152.23787Q66.70625 152.72224 66.12813 153.01912Q65.56563 153.316 64.90938 153.316Q63.6125 153.316 62.846874 152.45662Q62.096874 151.58162 62.096874 150.08162L62.096874 149.89412Q62.096874 148.97224 62.425 148.2535Q62.76875 147.53474 63.39375 147.14412Q64.03438 146.73787 64.90938 146.73787Q65.97188 146.73787 66.675 147.3785Q67.39375 148.0035 67.44063 149.03474L66.40938 149.03474Q66.3625 148.40974 65.94063 148.01912Q65.51875 147.6285 64.90938 147.6285Q64.08125 147.6285 63.628124 148.22224Q63.175 148.816 63.175 149.941L63.175 150.14412Q63.175 151.23787 63.628124 151.83162Q64.08125 152.42537 64.90938 152.42537ZM73.7375 150.09724Q73.7375 151.55037 73.06563 152.441Q72.40938 153.316 71.28438 153.316Q70.08125 153.316 69.425 152.45662L69.3625 153.191L68.37813 153.191L68.37813 144.191L69.45625 144.191L69.45625 147.55037Q70.1125 146.73787 71.26875 146.73787Q72.425 146.73787 73.08125 147.61287Q73.7375 148.47224 73.7375 150.0035L73.7375 150.09724ZM72.65938 149.97224Q72.65938 148.86287 72.22188 148.26912Q71.8 147.65974 71.00313 147.65974Q69.925 147.65974 69.45625 148.64412L69.45625 151.39412Q69.95625 152.39412 71.00313 152.39412Q71.78438 152.39412 72.22188 151.78474Q72.65938 151.17537 72.65938 149.97224ZM76.83125 148.39412L77.64375 148.39412Q78.425 148.3785 78.8625 147.98787Q79.3 147.59724 79.3 146.92537Q79.3 145.42537 77.8 145.42537Q77.09688 145.42537 76.675 145.83162Q76.26875 146.23787 76.26875 146.89412L75.175 146.89412Q75.175 145.8785 75.90938 145.20662Q76.65938 144.53474 77.8 144.53474Q79.00313 144.53474 79.69063 145.17537Q80.37813 145.816 80.37813 146.95662Q80.37813 147.51912 80.01875 148.03474Q79.65938 148.55037 79.03438 148.816Q79.7375 149.03474 80.1125 149.55037Q80.50313 150.066 80.50313 150.816Q80.50313 151.95662 79.75313 152.64412Q79.00313 153.316 77.8 153.316Q76.6125 153.316 75.84688 152.65974Q75.09688 152.0035 75.09688 150.941L76.19063 150.941Q76.19063 151.61287 76.62813 152.01912Q77.06563 152.42537 77.81563 152.42537Q78.59688 152.42537 79.00313 152.01912Q79.425 151.59724 79.425 150.83162Q79.425 150.09724 78.97188 149.70662Q78.51875 149.30037 77.64375 149.28474L76.83125 149.28474L76.83125 148.39412ZM84.62813 150.0035L81.76875 150.0035L81.76875 149.1285L84.62813 149.1285L84.62813 150.0035ZM87.90938 152.42537Q88.4875 152.42537 88.925 152.08162Q89.3625 151.72224 89.40938 151.191L90.44063 151.191Q90.40938 151.73787 90.05 152.23787Q89.70625 152.72224 89.12813 153.01912Q88.56563 153.316 87.90938 153.316Q86.6125 153.316 85.84688 152.45662Q85.09688 151.58162 85.09688 150.08162L85.09688 149.89412Q85.09688 148.97224 85.425 148.2535Q85.76875 147.53474 86.39375 147.14412Q87.03438 146.73787 87.90938 146.73787Q88.97188 146.73787 89.675 147.3785Q90.39375 148.0035 90.44063 149.03474L89.40938 149.03474Q89.3625 148.40974 88.94063 148.01912Q88.51875 147.6285 87.90938 147.6285Q87.08125 147.6285 86.62813 148.22224Q86.175 148.816 86.175 149.941L86.175 150.14412Q86.175 151.23787 86.62813 151.83162Q87.08125 152.42537 87.90938 152.42537ZM92.84688 145.316L92.84688 146.84724L94.01875 146.84724L94.01875 147.691L92.84688 147.691L92.84688 151.61287Q92.84688 152.0035 93.00313 152.191Q93.15938 152.3785 93.53438 152.3785Q93.72188 152.3785 94.05 152.316L94.05 153.191Q93.62813 153.316 93.22188 153.316Q92.50313 153.316 92.12813 152.8785Q91.75313 152.42537 91.75313 151.61287L91.75313 147.691L90.59688 147.691L90.59688 146.84724L91.75313 146.84724L91.75313 145.316L92.84688 145.316ZM97.50313 149.15974L98.90938 146.84724L100.175 146.84724L98.09688 149.98787L100.2375 153.191L98.9875 153.191L97.51875 150.816L96.05 153.191L94.78438 153.191L96.925 149.98787L94.8625 146.84724L96.1125 146.84724L97.50313 149.15974Z" fill-rule="nonzero"/><path fill="#314c59" d="M56.440624 203.80067Q56.190624 203.76942 55.909374 203.76942Q54.83125 203.76942 54.45625 204.67567L54.45625 209.17567L53.378124 209.17567L53.378124 202.83192L54.425 202.83192L54.440624 203.5663Q54.971874 202.72255 55.95625 202.72255Q56.26875 202.72255 56.440624 202.80067L56.440624 203.80067ZM58.55 209.17567L57.471874 209.17567L57.471874 202.83192L58.55 202.83192L58.55 209.17567ZM57.378124 201.16005Q57.378124 200.89442 57.534374 200.70692Q57.70625 200.51942 58.01875 200.51942Q58.33125 200.51942 58.4875 200.70692Q58.659374 200.89442 58.659374 201.16005Q58.659374 201.41005 58.4875 201.59755Q58.33125 201.76942 58.01875 201.76942Q57.70625 201.76942 57.534374 201.59755Q57.378124 201.41005 57.378124 201.16005ZM61.39375 202.83192L61.425 203.6288Q62.159374 202.72255 63.33125 202.72255Q65.34688 202.72255 65.3625 204.98817L65.3625 209.17567L64.26875 209.17567L64.26875 204.97255Q64.26875 204.30067 63.95625 203.97255Q63.659374 203.64442 63.003124 203.64442Q62.471874 203.64442 62.065624 203.92567Q61.675 204.20692 61.45625 204.66005L61.45625 209.17567L60.378124 209.17567L60.378124 202.83192L61.39375 202.83192ZM67.1125 205.95692Q67.1125 204.47255 67.8 203.59755Q68.4875 202.72255 69.6125 202.72255Q70.76875 202.72255 71.425 203.53505L71.47188 202.83192L72.47188 202.83192L72.47188 209.01942Q72.47188 210.2538 71.7375 210.95692Q71.00313 211.67567 69.78438 211.67567Q69.09688 211.67567 68.44063 211.3788Q67.78438 211.08192 67.44063 210.58192L68.00313 209.92567Q68.69063 210.78505 69.70625 210.78505Q70.4875 210.78505 70.925 210.33192Q71.37813 209.89442 71.37813 209.08192L71.37813 208.53505Q70.72188 209.30067 69.59688 209.30067Q68.4875 209.30067 67.8 208.41005Q67.1125 207.5038 67.1125 205.95692ZM68.20625 206.08192Q68.20625 207.14442 68.64375 207.76942Q69.08125 208.3788 69.87813 208.3788Q70.89375 208.3788 71.37813 207.4413L71.37813 204.55067Q70.87813 203.64442 69.87813 203.64442Q69.09688 203.64442 68.64375 204.2538Q68.20625 204.86317 68.20625 206.08192ZM76.62813 205.98817L73.76875 205.98817L73.76875 205.11317L76.62813 205.11317L76.62813 205.98817ZM77.1125 205.95692Q77.1125 204.47255 77.8 203.59755Q78.4875 202.72255 79.6125 202.72255Q80.76875 202.72255 81.425 203.53505L81.47188 202.83192L82.47188 202.83192L82.47188 209.01942Q82.47188 210.2538 81.7375 210.95692Q81.00313 211.67567 79.78438 211.67567Q79.09688 211.67567 78.44063 211.3788Q77.78438 211.08192 77.44063 210.58192L78.00313 209.92567Q78.69063 210.78505 79.70625 210.78505Q80.4875 210.78505 80.925 210.33192Q81.37813 209.89442 81.37813 209.08192L81.37813 208.53505Q80.72188 209.30067 79.59688 209.30067Q78.4875 209.30067 77.8 208.41005Q77.1125 207.5038 77.1125 205.95692ZM78.20625 206.08192Q78.20625 207.14442 78.64375 207.76942Q79.08125 208.3788 79.87813 208.3788Q80.89375 208.3788 81.37813 207.4413L81.37813 204.55067Q80.87813 203.64442 79.87813 203.64442Q79.09688 203.64442 78.64375 204.2538Q78.20625 204.86317 78.20625 206.08192ZM86.90938 208.41005Q87.4875 208.41005 87.925 208.0663Q88.3625 207.70692 88.40938 207.17567L89.44063 207.17567Q89.40938 207.72255 89.05 208.22255Q88.70625 208.70692 88.12813 209.0038Q87.56563 209.30067 86.90938 209.30067Q85.6125 209.30067 84.84688 208.4413Q84.09688 207.5663 84.09688 206.0663L84.09688 205.8788Q84.09688 204.95692 84.425 204.23817Q84.76875 203.51942 85.39375 203.1288Q86.03438 202.72255 86.90938 202.72255Q87.97188 202.72255 88.675 203.36317Q89.39375 203.98817 89.44063 205.01942L88.40938 205.01942Q88.3625 204.39442 87.94063 204.0038Q87.51875 203.61317 86.90938 203.61317Q86.08125 203.61317 85.62813 204.20692Q85.175 204.80067 85.175 205.92567L85.175 206.1288Q85.175 207.22255 85.62813 207.8163Q86.08125 208.41005 86.90938 208.41005ZM91.39375 202.83192L91.425 203.53505Q92.1125 202.72255 93.3 202.72255Q94.62813 202.72255 95.1125 203.73817Q95.425 203.28505 95.925 203.0038Q96.44063 202.72255 97.12813 202.72255Q99.22188 202.72255 99.25313 204.92567L99.25313 209.17567L98.175 209.17567L98.175 204.98817Q98.175 204.3163 97.8625 203.98817Q97.55 203.64442 96.81563 203.64442Q96.20625 203.64442 95.8 204.0038Q95.40938 204.36317 95.34688 204.97255L95.34688 209.17567L94.26875 209.17567L94.26875 205.01942Q94.26875 203.64442 92.90938 203.64442Q91.84688 203.64442 91.45625 204.55067L91.45625 209.17567L90.3625 209.17567L90.3625 202.83192L91.39375 202.83192Z" fill-rule="nonzero"/><path fill="#314c59" d="M22.440624 259.78534Q22.190624 259.7541 21.909374 259.7541Q20.83125 259.7541 20.45625 260.66034L20.45625 265.16034L19.378124 265.16034L19.378124 258.8166L20.425 258.8166L20.440624 259.55096Q20.971874 258.7072 21.95625 258.7072Q22.26875 258.7072 22.440624 258.78534L22.440624 259.78534ZM27.284374 264.53534Q26.659374 265.28534 25.425 265.28534Q24.409374 265.28534 23.878124 264.6916Q23.346874 264.09784 23.346874 262.9416L23.346874 258.8166L24.425 258.8166L24.425 262.91034Q24.425 264.36346 25.596874 264.36346Q26.846874 264.36346 27.253124 263.42596L27.253124 258.8166L28.346874 258.8166L28.346874 265.16034L27.315624 265.16034L27.284374 264.53534ZM34.065624 263.47284Q34.065624 263.03534 33.721874 262.80096Q33.39375 262.55096 32.565624 262.3791Q31.753124 262.2072 31.26875 261.9572Q30.784374 261.7072 30.55 261.3791Q30.33125 261.03534 30.33125 260.5666Q30.33125 259.78534 30.9875 259.2541Q31.64375 258.7072 32.675 258.7072Q33.753124 258.7072 34.409374 259.2697Q35.08125 259.8166 35.08125 260.67596L34.003124 260.67596Q34.003124 260.23846 33.6125 259.92596Q33.2375 259.59784 32.675 259.59784Q32.08125 259.59784 31.7375 259.86346Q31.409374 260.11346 31.409374 260.5197Q31.409374 260.91034 31.721874 261.11346Q32.034374 261.3166 32.846874 261.5041Q33.659374 261.67596 34.159374 261.92596Q34.659374 262.17596 34.89375 262.53534Q35.14375 262.8947 35.14375 263.3947Q35.14375 264.2541 34.45625 264.7697Q33.784374 265.28534 32.70625 265.28534Q31.940624 265.28534 31.346874 265.0197Q30.76875 264.73846 30.440624 264.2541Q30.1125 263.7697 30.1125 263.2072L31.190624 263.2072Q31.221874 263.7541 31.628124 264.0822Q32.034374 264.3947 32.70625 264.3947Q33.315624 264.3947 33.690624 264.1447Q34.065624 263.8947 34.065624 263.47284ZM37.846874 257.28534L37.846874 258.8166L39.01875 258.8166L39.01875 259.66034L37.846874 259.66034L37.846874 263.5822Q37.846874 263.97284 38.003124 264.16034Q38.159374 264.34784 38.534374 264.34784Q38.721874 264.34784 39.05 264.28534L39.05 265.16034Q38.628124 265.28534 38.221874 265.28534Q37.503124 265.28534 37.128124 264.84784Q36.753124 264.3947 36.753124 263.5822L36.753124 259.66034L35.596874 259.66034L35.596874 258.8166L36.753124 258.8166L36.753124 257.28534L37.846874 257.28534ZM42.909374 264.3947Q43.4875 264.3947 43.925 264.05096Q44.3625 263.6916 44.409374 263.16034L45.440624 263.16034Q45.409374 263.7072 45.05 264.2072Q44.70625 264.6916 44.128124 264.98846Q43.565624 265.28534 42.909374 265.28534Q41.6125 265.28534 40.846874 264.42596Q40.096874 263.55096 40.096874 262.05096L40.096874 261.86346Q40.096874 260.9416 40.425 260.22284Q40.76875 259.5041 41.39375 259.11346Q42.034374 258.7072 42.909374 258.7072Q43.971874 258.7072 44.675 259.34784Q45.39375 259.97284 45.440624 261.0041L44.409374 261.0041Q44.3625 260.3791 43.940624 259.98846Q43.51875 259.59784 42.909374 259.59784Q42.08125 259.59784 41.628124 260.1916Q41.175 260.78534 41.175 261.91034L41.175 262.11346Q41.175 263.2072 41.628124 263.80096Q42.08125 264.3947 42.909374 264.3947ZM49.440624 259.78534Q49.190624 259.7541 48.909374 259.7541Q47.83125 259.7541 47.45625 260.66034L47.45625 265.16034L46.378124 265.16034L46.378124 258.8166L47.425 258.8166L47.440624 259.55096Q47.971874 258.7072 48.95625 258.7072Q49.26875 258.7072 49.440624 258.78534L49.440624 259.78534ZM52.440624 263.5666L53.925 258.8166L55.08125 258.8166L52.534374 266.1447Q51.940624 267.72284 50.659374 267.72284L50.440624 267.7072L50.05 267.6291L50.05 266.7541L50.33125 266.7697Q50.89375 266.7697 51.190624 266.55096Q51.503124 266.3322 51.70625 265.73846L51.940624 265.0822L49.675 258.8166L50.8625 258.8166L52.440624 263.5666ZM61.721874 262.0666Q61.721874 263.5041 61.065624 264.3947Q60.409374 265.28534 59.26875 265.28534Q58.1125 265.28534 57.45625 264.55096L57.45625 267.59784L56.378124 267.59784L56.378124 258.8166L57.3625 258.8166L57.409374 259.5197Q58.08125 258.7072 59.253124 258.7072Q60.39375 258.7072 61.05 259.5666Q61.721874 260.42596 61.721874 261.9572L61.721874 262.0666ZM60.64375 261.9416Q60.64375 260.86346 60.175 260.2541Q59.721874 259.6291 58.925 259.6291Q57.940624 259.6291 57.45625 260.48846L57.45625 263.5197Q57.940624 264.3947 58.940624 264.3947Q59.721874 264.3947 60.175 263.78534Q60.64375 263.16034 60.64375 261.9416ZM64.84688 257.28534L64.84688 258.8166L66.01875 258.8166L66.01875 259.66034L64.84688 259.66034L64.84688 263.5822Q64.84688 263.97284 65.00313 264.16034Q65.15938 264.34784 65.53438 264.34784Q65.72188 264.34784 66.05 264.28534L66.05 265.16034Q65.62813 265.28534 65.22188 265.28534Q64.50313 265.28534 64.12813 264.84784Q63.753124 264.3947 63.753124 263.5822L63.753124 259.66034L62.596874 259.66034L62.596874 258.8166L63.753124 258.8166L63.753124 257.28534L64.84688 257.28534ZM67.08125 261.92596Q67.08125 261.0041 67.44063 260.2541Q67.81563 259.5041 68.47188 259.11346Q69.12813 258.7072 69.95625 258.7072Q71.25313 258.7072 72.05 259.59784Q72.8625 260.48846 72.8625 261.98846L72.8625 262.0666Q72.8625 262.98846 72.50313 263.72284Q72.14375 264.4572 71.4875 264.8791Q70.83125 265.28534 69.97188 265.28534Q68.69063 265.28534 67.87813 264.3947Q67.08125 263.48846 67.08125 262.0041L67.08125 261.92596ZM68.175 262.0666Q68.175 263.11346 68.65938 263.7541Q69.15938 264.3947 69.97188 264.3947Q70.8 264.3947 71.28438 263.7541Q71.76875 263.09784 71.76875 261.92596Q71.76875 260.8947 71.26875 260.2541Q70.78438 259.59784 69.95625 259.59784Q69.15938 259.59784 68.65938 260.23846Q68.175 260.86346 68.175 262.0666ZM76.62813 261.97284L73.76875 261.97284L73.76875 261.09784L76.62813 261.09784L76.62813 261.97284ZM77.1125 261.9416Q77.1125 260.4572 77.8 259.5822Q78.4875 258.7072 79.6125 258.7072Q80.76875 258.7072 81.425 259.5197L81.47188 258.8166L82.47188 258.8166L82.47188 265.0041Q82.47188 266.23846 81.7375 266.9416Q81.00313 267.66034 79.78438 267.66034Q79.09688 267.66034 78.44063 267.36346Q77.78438 267.0666 77.44063 266.5666L78.00313 265.91034Q78.69063 266.7697 79.70625 266.7697Q80.4875 266.7697 80.925 266.3166Q81.37813 265.8791 81.37813 265.0666L81.37813 264.5197Q80.72188 265.28534 79.59688 265.28534Q78.4875 265.28534 77.8 264.3947Q77.1125 263.48846 77.1125 261.9416ZM78.20625 262.0666Q78.20625 263.1291 78.64375 263.7541Q79.08125 264.36346 79.87813 264.36346Q80.89375 264.36346 81.37813 263.42596L81.37813 260.53534Q80.87813 259.6291 79.87813 259.6291Q79.09688 259.6291 78.64375 260.23846Q78.20625 260.84784 78.20625 262.0666ZM86.90938 264.3947Q87.4875 264.3947 87.925 264.05096Q88.3625 263.6916 88.40938 263.16034L89.44063 263.16034Q89.40938 263.7072 89.05 264.2072Q88.70625 264.6916 88.12813 264.98846Q87.56563 265.28534 86.90938 265.28534Q85.6125 265.28534 84.84688 264.42596Q84.09688 263.55096 84.09688 262.05096L84.09688 261.86346Q84.09688 260.9416 84.425 260.22284Q84.76875 259.5041 85.39375 259.11346Q86.03438 258.7072 86.90938 258.7072Q87.97188 258.7072 88.675 259.34784Q89.39375 259.97284 89.44063 261.0041L88.40938 261.0041Q88.3625 260.3791 87.94063 259.98846Q87.51875 259.59784 86.90938 259.59784Q86.08125 259.59784 85.62813 260.1916Q85.175 260.78534 85.175 261.91034L85.175 262.11346Q85.175 263.2072 85.62813 263.80096Q86.08125 264.3947 86.90938 264.3947ZM91.39375 258.8166L91.425 259.5197Q92.1125 258.7072 93.3 258.7072Q94.62813 258.7072 95.1125 259.72284Q95.425 259.2697 95.925 258.98846Q96.44063 258.7072 97.12813 258.7072Q99.22188 258.7072 99.25313 260.91034L99.25313 265.16034L98.175 265.16034L98.175 260.97284Q98.175 260.30096 97.8625 259.97284Q97.55 259.6291 96.81563 259.6291Q96.20625 259.6291 95.8 259.98846Q95.40938 260.34784 95.34688 260.9572L95.34688 265.16034L94.26875 265.16034L94.26875 261.0041Q94.26875 259.6291 92.90938 259.6291Q91.84688 259.6291 91.45625 260.53534L91.45625 265.16034L90.3625 265.16034L90.3625 258.8166L91.39375 258.8166Z" fill-rule="nonzero"/><path fill="#314c59" d="M109.1125 312.8094Q109.1125 314.71564 108.45625 315.65314Q107.81563 316.575 106.425 316.575Q105.06563 316.575 104.40938 315.66876Q103.75313 314.7625 103.72188 312.95L103.72188 311.5125Q103.72188 309.6219 104.3625 308.71564Q105.01875 307.79376 106.40938 307.79376Q107.78438 307.79376 108.44063 308.6844Q109.09688 309.5594 109.1125 311.40314L109.1125 312.8094ZM108.01875 311.325Q108.01875 309.95 107.62813 309.325Q107.25313 308.6844 106.40938 308.6844Q105.58125 308.6844 105.19063 309.325Q104.81563 309.95 104.81563 311.2469L104.81563 312.98126Q104.81563 314.35626 105.20625 315.02814Q105.6125 315.6844 106.425 315.6844Q107.22188 315.6844 107.6125 315.0594Q108.00313 314.4344 108.01875 313.10626L108.01875 311.325Z" fill-rule="nonzero"/><path fill="#314c59" d="M175.15848 316.45L174.08035 316.45L174.08035 309.23126L171.89285 310.02814L171.89285 309.04376L175.00223 307.8719L175.15848 307.8719L175.15848 316.45Z" fill-rule="nonzero"/><path fill="#314c59" d="M245.0326 316.45L239.43884 316.45L239.43884 315.66876L242.39197 312.3875Q243.04822 311.6375 243.29822 311.1844Q243.54822 310.71564 243.54822 310.21564Q243.54822 309.54376 243.14197 309.1219Q242.75134 308.6844 242.06384 308.6844Q241.26697 308.6844 240.81384 309.15314Q240.36072 309.60626 240.36072 310.4344L239.2826 310.4344Q239.2826 309.2469 240.0326 308.52814Q240.79822 307.79376 242.06384 307.79376Q243.26697 307.79376 243.95447 308.41876Q244.64197 309.04376 244.64197 310.09064Q244.64197 311.34064 243.0326 313.09064L240.75134 315.5594L245.0326 315.5594L245.0326 316.45Z" fill-rule="nonzero"/><path fill="#314c59" d="M308.85983 311.65314L309.67233 311.65314Q310.45358 311.6375 310.89108 311.2469Q311.32858 310.85626 311.32858 310.1844Q311.32858 308.6844 309.82858 308.6844Q309.12546 308.6844 308.70358 309.09064Q308.29733 309.4969 308.29733 310.15314L307.20358 310.15314Q307.20358 309.1375 307.93796 308.46564Q308.68796 307.79376 309.82858 307.79376Q311.0317 307.79376 311.7192 308.4344Q312.4067 309.075 312.4067 310.21564Q312.4067 310.77814 312.04733 311.29376Q311.68796 311.8094 311.06296 312.075Q311.76608 312.29376 312.14108 312.8094Q312.5317 313.325 312.5317 314.075Q312.5317 315.21564 311.7817 315.90314Q311.0317 316.575 309.82858 316.575Q308.64108 316.575 307.87546 315.91876Q307.12546 315.2625 307.12546 314.2L308.2192 314.2Q308.2192 314.8719 308.6567 315.27814Q309.0942 315.6844 309.8442 315.6844Q310.62546 315.6844 311.0317 315.27814Q311.45358 314.85626 311.45358 314.09064Q311.45358 313.35626 311.00046 312.96564Q310.54733 312.5594 309.67233 312.54376L308.85983 312.54376L308.85983 311.65314Z" fill-rule="nonzero"/><path fill="#314c59" d="M379.70267 313.59064L380.89017 313.59064L380.89017 314.46564L379.70267 314.46564L379.70267 316.45L378.62454 316.45L378.62454 314.46564L374.73392 314.46564L374.73392 313.825L378.54642 307.91876L379.70267 307.91876L379.70267 313.59064ZM375.9683 313.59064L378.62454 313.59064L378.62454 309.40314L378.48392 309.6375L375.9683 313.59064Z" fill-rule="nonzero"/><path fill="#314c59" d="M443.4674 312.16876L443.9049 307.91876L448.2799 307.91876L448.2799 308.91876L444.82678 308.91876L444.56116 311.2469Q445.20178 310.8719 445.99866 310.8719Q447.1549 310.8719 447.8424 311.65314Q448.5299 312.41876 448.5299 313.73126Q448.5299 315.04376 447.81116 315.8094Q447.10803 316.575 445.82678 316.575Q444.70178 316.575 443.98303 315.95Q443.26428 315.3094 443.17053 314.2L444.18616 314.2Q444.29553 314.9344 444.7174 315.3094Q445.13928 315.6844 445.82678 315.6844Q446.57678 315.6844 447.01428 315.16876Q447.45178 314.65314 447.45178 313.7469Q447.45178 312.8875 446.98303 312.3719Q446.51428 311.85626 445.73303 311.85626Q445.0299 311.85626 444.62366 312.15314L444.3424 312.3875L443.4674 312.16876Z" fill-rule="nonzero"/><path fill="#314c59" d="M515.0759 307.91876L515.0759 308.825L514.8728 308.825Q513.6072 308.85626 512.8572 309.59064Q512.1072 310.3094 511.98215 311.6219Q512.6697 310.85626 513.8259 310.85626Q514.9353 310.85626 515.6072 311.6375Q516.27905 312.41876 516.27905 313.66876Q516.27905 314.98126 515.5603 315.77814Q514.84155 316.575 513.6228 316.575Q512.40405 316.575 511.6384 315.6375Q510.8884 314.6844 510.8884 313.2L510.8884 312.79376Q510.8884 310.4344 511.8884 309.1844Q512.8884 307.9344 514.8728 307.91876L515.0759 307.91876ZM513.65405 311.7625Q513.09155 311.7625 512.6228 312.09064Q512.15405 312.41876 511.96652 312.9344L511.96652 313.325Q511.96652 314.3875 512.4353 315.02814Q512.9197 315.66876 513.6228 315.66876Q514.3572 315.66876 514.77905 315.1375Q515.2009 314.59064 515.2009 313.71564Q515.2009 312.84064 514.77905 312.3094Q514.3572 311.7625 513.65405 311.7625Z" fill-rule="nonzero"/><path fill="#314c59" d="M584.16876 308.52814L580.6375 316.45L579.4969 316.45L583.0125 308.8094L578.40314 308.8094L578.40314 307.91876L584.16876 307.91876L584.16876 308.52814Z" fill-rule="nonzero"/><path fill="#909ea5" d="M192.15625 36.55L192.15625 22.33125L196.17188 22.33125Q198.01562 22.33125 199.4375 23.159374Q200.875 23.971874 201.64062 25.4875Q202.42188 27.003124 202.4375 28.95625L202.4375 29.8625Q202.4375 31.878124 201.65625 33.39375Q200.875 34.909374 199.4375 35.721874Q198.0 36.534374 196.09375 36.55L192.15625 36.55ZM194.03125 23.878124L194.03125 35.01875L196.0 35.01875Q198.17188 35.01875 199.375 33.675Q200.57812 32.315624 200.57812 29.83125L200.57812 29.003124Q200.57812 26.58125 199.4375 25.2375Q198.29688 23.89375 196.21875 23.878124L194.03125 23.878124ZM209.25 36.753124Q207.10938 36.753124 205.75 35.346874Q204.40625 33.925 204.40625 31.565624L204.40625 31.221874Q204.40625 29.659374 205.0 28.425Q205.60938 27.190624 206.6875 26.4875Q207.76562 25.784374 209.03125 25.784374Q211.09375 25.784374 212.23438 27.14375Q213.375 28.503124 213.375 31.034374L213.375 31.784374L206.21875 31.784374Q206.25 33.346874 207.125 34.315624Q208.0 35.26875 209.34375 35.26875Q210.3125 35.26875 210.96875 34.878124Q211.64062 34.4875 212.14062 33.846874L213.23438 34.70625Q211.90625 36.753124 209.25 36.753124ZM209.03125 27.26875Q207.9375 27.26875 207.1875 28.065624Q206.45312 28.8625 206.28125 30.3L211.5625 30.3L211.5625 30.159374Q211.48438 28.784374 210.8125 28.034374Q210.15625 27.26875 209.03125 27.26875ZM220.10938 35.26875Q221.07812 35.26875 221.79688 34.690624Q222.51562 34.096874 222.59375 33.221874L224.3125 33.221874Q224.25 34.128124 223.67188 34.95625Q223.10938 35.76875 222.14062 36.26875Q221.1875 36.753124 220.10938 36.753124Q217.95312 36.753124 216.67188 35.315624Q215.40625 33.8625 215.40625 31.3625L215.40625 31.065624Q215.40625 29.51875 215.96875 28.315624Q216.53125 27.1125 217.59375 26.45625Q218.65625 25.784374 220.09375 25.784374Q221.875 25.784374 223.04688 26.846874Q224.23438 27.909374 224.3125 29.6125L222.59375 29.6125Q222.51562 28.596874 221.8125 27.940624Q221.125 27.26875 220.09375 27.26875Q218.71875 27.26875 217.95312 28.26875Q217.20312 29.253124 217.20312 31.128124L217.20312 31.471874Q217.20312 33.3 217.95312 34.284374Q218.70312 35.26875 220.10938 35.26875ZM230.96875 27.596874Q230.5625 27.534374 230.09375 27.534374Q228.3125 27.534374 227.67188 29.05L227.67188 36.55L225.875 36.55L225.875 25.9875L227.625 25.9875L227.65625 27.20625Q228.54688 25.784374 230.17188 25.784374Q230.70312 25.784374 230.96875 25.925L230.96875 27.596874ZM236.32812 33.909374L238.78125 25.9875L240.71875 25.9875L236.46875 38.175Q235.48438 40.815624 233.34375 40.815624L233.0 40.784374L232.32812 40.659374L232.32812 39.190624L232.8125 39.2375Q233.73438 39.2375 234.23438 38.8625Q234.75 38.4875 235.07812 37.503124L235.48438 36.425L231.71875 25.9875L233.6875 25.9875L236.32812 33.909374ZM250.79688 31.378124Q250.79688 33.8 249.6875 35.284374Q248.59375 36.753124 246.70312 36.753124Q244.78125 36.753124 243.67188 35.51875L243.67188 40.6125L241.875 40.6125L241.875 25.9875L243.51562 25.9875L243.60938 27.159374Q244.70312 25.784374 246.67188 25.784374Q248.57812 25.784374 249.6875 27.221874Q250.79688 28.659374 250.79688 31.221874L250.79688 31.378124ZM248.98438 31.175Q248.98438 29.39375 248.21875 28.3625Q247.46875 27.315624 246.14062 27.315624Q244.5 27.315624 243.67188 28.76875L243.67188 33.83125Q244.48438 35.26875 246.15625 35.26875Q247.45312 35.26875 248.21875 34.2375Q248.98438 33.20625 248.98438 31.175ZM255.3125 23.425L255.3125 25.9875L257.29688 25.9875L257.29688 27.378124L255.3125 27.378124L255.3125 33.925Q255.3125 34.565624 255.57812 34.89375Q255.84375 35.20625 256.48438 35.20625Q256.79688 35.20625 257.34375 35.08125L257.34375 36.55Q256.625 36.753124 255.95312 36.753124Q254.75 36.753124 254.125 36.01875Q253.51562 35.284374 253.51562 33.925L253.51562 27.378124L251.59375 27.378124L251.59375 25.9875L253.51562 25.9875L253.51562 23.425L255.3125 23.425ZM261.82812 36.55L260.03125 36.55L260.03125 25.9875L261.82812 25.9875L261.82812 36.55ZM259.875 23.175Q259.875 22.7375 260.14062 22.440624Q260.42188 22.128124 260.9375 22.128124Q261.46875 22.128124 261.73438 22.440624Q262.01562 22.7375 262.01562 23.175Q262.01562 23.6125 261.73438 23.909374Q261.46875 24.20625 260.9375 24.20625Q260.42188 24.20625 260.14062 23.909374Q259.875 23.6125 259.875 23.175ZM264.39062 31.175Q264.39062 29.6125 265.0 28.378124Q265.60938 27.128124 266.6875 26.45625Q267.78125 25.784374 269.1875 25.784374Q271.34375 25.784374 272.67188 27.284374Q274.01562 28.76875 274.01562 31.253124L274.01562 31.378124Q274.01562 32.925 273.42188 34.159374Q272.82812 35.378124 271.71875 36.065624Q270.625 36.753124 269.20312 36.753124Q267.0625 36.753124 265.71875 35.253124Q264.39062 33.753124 264.39062 31.3L264.39062 31.175ZM266.20312 31.378124Q266.20312 33.14375 267.01562 34.20625Q267.84375 35.26875 269.20312 35.26875Q270.57812 35.26875 271.39062 34.190624Q272.20312 33.1125 272.20312 31.175Q272.20312 29.425 271.375 28.346874Q270.54688 27.26875 269.1875 27.26875Q267.84375 27.26875 267.01562 28.33125Q266.20312 29.39375 266.20312 31.378124ZM277.57812 25.9875L277.64062 27.315624Q278.84375 25.784374 280.79688 25.784374Q284.15625 25.784374 284.17188 29.565624L284.17188 36.55L282.375 36.55L282.375 29.55Q282.35938 28.409374 281.84375 27.8625Q281.34375 27.315624 280.25 27.315624Q279.375 27.315624 278.70312 27.784374Q278.04688 28.253124 277.67188 29.01875L277.67188 36.55L275.875 36.55L275.875 25.9875L277.57812 25.9875ZM294.03125 30.9875L294.03125 36.55L292.15625 36.55L292.15625 22.33125L297.39062 22.33125Q299.73438 22.33125 301.04688 23.51875Q302.375 24.70625 302.375 26.675Q302.375 28.753124 301.07812 29.878124Q299.78125 30.9875 297.375 30.9875L294.03125 30.9875ZM294.03125 29.45625L297.39062 29.45625Q298.90625 29.45625 299.70312 28.753124Q300.5 28.034374 300.5 26.690624Q300.5 25.425 299.70312 24.675Q298.90625 23.909374 297.5 23.878124L294.03125 23.878124L294.03125 29.45625ZM309.25 36.753124Q307.10938 36.753124 305.75 35.346874Q304.40625 33.925 304.40625 31.565624L304.40625 31.221874Q304.40625 29.659374 305.0 28.425Q305.60938 27.190624 306.6875 26.4875Q307.76562 25.784374 309.03125 25.784374Q311.09375 25.784374 312.23438 27.14375Q313.375 28.503124 313.375 31.034374L313.375 31.784374L306.21875 31.784374Q306.25 33.346874 307.125 34.315624Q308.0 35.26875 309.34375 35.26875Q310.3125 35.26875 310.96875 34.878124Q311.64062 34.4875 312.14062 33.846874L313.23438 34.70625Q311.90625 36.753124 309.25 36.753124ZM309.03125 27.26875Q307.9375 27.26875 307.1875 28.065624Q306.45312 28.8625 306.28125 30.3L311.5625 30.3L311.5625 30.159374Q311.48438 28.784374 310.8125 28.034374Q310.15625 27.26875 309.03125 27.26875ZM320.96875 27.596874Q320.5625 27.534374 320.09375 27.534374Q318.3125 27.534374 317.67188 29.05L317.67188 36.55L315.875 36.55L315.875 25.9875L317.625 25.9875L317.65625 27.20625Q318.54688 25.784374 320.17188 25.784374Q320.70312 25.784374 320.96875 25.925L320.96875 27.596874ZM323.75 36.55L323.75 27.378124L322.09375 27.378124L322.09375 25.9875L323.75 25.9875L323.75 24.89375Q323.75 23.20625 324.65625 22.284374Q325.57812 21.346874 327.23438 21.346874Q327.85938 21.346874 328.46875 21.503124L328.375 22.971874Q327.92188 22.89375 327.40625 22.89375Q326.51562 22.89375 326.03125 23.409374Q325.5625 23.909374 325.5625 24.8625L325.5625 25.9875L327.8125 25.9875L327.8125 27.378124L325.5625 27.378124L325.5625 36.55L323.75 36.55ZM329.39062 31.175Q329.39062 29.6125 330.0 28.378124Q330.60938 27.128124 331.6875 26.45625Q332.78125 25.784374 334.1875 25.784374Q336.34375 25.784374 337.67188 27.284374Q339.01562 28.76875 339.01562 31.253124L339.01562 31.378124Q339.01562 32.925 338.42188 34.159374Q337.82812 35.378124 336.71875 36.065624Q335.625 36.753124 334.20312 36.753124Q332.0625 36.753124 330.71875 35.253124Q329.39062 33.753124 329.39062 31.3L329.39062 31.175ZM331.20312 31.378124Q331.20312 33.14375 332.01562 34.20625Q332.84375 35.26875 334.20312 35.26875Q335.57812 35.26875 336.39062 34.190624Q337.20312 33.1125 337.20312 31.175Q337.20312 29.425 336.375 28.346874Q335.54688 27.26875 334.1875 27.26875Q332.84375 27.26875 332.01562 28.33125Q331.20312 29.39375 331.20312 31.378124ZM345.96875 27.596874Q345.5625 27.534374 345.09375 27.534374Q343.3125 27.534374 342.67188 29.05L342.67188 36.55L340.875 36.55L340.875 25.9875L342.625 25.9875L342.65625 27.20625Q343.54688 25.784374 345.17188 25.784374Q345.70312 25.784374 345.96875 25.925L345.96875 27.596874ZM349.5625 25.9875L349.60938 27.159374Q350.78125 25.784374 352.75 25.784374Q354.96875 25.784374 355.76562 27.4875Q356.29688 26.721874 357.14062 26.253124Q357.98438 25.784374 359.14062 25.784374Q362.60938 25.784374 362.67188 29.471874L362.67188 36.55L360.85938 36.55L360.85938 29.58125Q360.85938 28.440624 360.34375 27.878124Q359.82812 27.315624 358.60938 27.315624Q357.60938 27.315624 356.9375 27.925Q356.28125 28.51875 356.17188 29.534374L356.17188 36.55L354.35938 36.55L354.35938 29.628124Q354.35938 27.315624 352.09375 27.315624Q350.3125 27.315624 349.67188 28.83125L349.67188 36.55L347.85938 36.55L347.85938 25.9875L349.5625 25.9875ZM372.39062 36.55Q372.23438 36.2375 372.14062 35.440624Q370.875 36.753124 369.125 36.753124Q367.5625 36.753124 366.5625 35.8625Q365.5625 34.971874 365.5625 33.6125Q365.5625 31.971874 366.8125 31.065624Q368.07812 30.14375 370.34375 30.14375L372.10938 30.14375L372.10938 29.315624Q372.10938 28.3625 371.53125 27.8Q370.96875 27.2375 369.875 27.2375Q368.90625 27.2375 368.25 27.7375Q367.59375 28.221874 367.59375 28.909374L365.78125 28.909374Q365.78125 28.128124 366.34375 27.39375Q366.90625 26.64375 367.85938 26.221874Q368.82812 25.784374 369.98438 25.784374Q371.8125 25.784374 372.84375 26.70625Q373.875 27.6125 373.92188 29.221874L373.92188 34.08125Q373.92188 35.534374 374.28125 36.39375L374.28125 36.55L372.39062 36.55ZM369.39062 35.175Q370.25 35.175 371.0 34.7375Q371.76562 34.3 372.10938 33.596874L372.10938 31.425L370.6875 31.425Q367.375 31.425 367.375 33.3625Q367.375 34.221874 367.9375 34.70625Q368.5 35.175 369.39062 35.175ZM378.57812 25.9875L378.64062 27.315624Q379.84375 25.784374 381.79688 25.784374Q385.15625 25.784374 385.17188 29.565624L385.17188 36.55L383.375 36.55L383.375 29.55Q383.35938 28.409374 382.84375 27.8625Q382.34375 27.315624 381.25 27.315624Q380.375 27.315624 379.70312 27.784374Q379.04688 28.253124 378.67188 29.01875L378.67188 36.55L376.875 36.55L376.875 25.9875L378.57812 25.9875ZM392.10938 35.26875Q393.07812 35.26875 393.79688 34.690624Q394.51562 34.096874 394.59375 33.221874L396.3125 33.221874Q396.25 34.128124 395.67188 34.95625Q395.10938 35.76875 394.14062 36.26875Q393.1875 36.753124 392.10938 36.753124Q389.95312 36.753124 388.67188 35.315624Q387.40625 33.8625 387.40625 31.3625L387.40625 31.065624Q387.40625 29.51875 387.96875 28.315624Q388.53125 27.1125 389.59375 26.45625Q390.65625 25.784374 392.09375 25.784374Q393.875 25.784374 395.04688 26.846874Q396.23438 27.909374 396.3125 29.6125L394.59375 29.6125Q394.51562 28.596874 393.8125 27.940624Q393.125 27.26875 392.09375 27.26875Q390.71875 27.26875 389.95312 28.26875Q389.20312 29.253124 389.20312 31.128124L389.20312 31.471874Q389.20312 33.3 389.95312 34.284374Q390.70312 35.26875 392.10938 35.26875ZM402.25 36.753124Q400.10938 36.753124 398.75 35.346874Q397.40625 33.925 397.40625 31.565624L397.40625 31.221874Q397.40625 29.659374 398.0 28.425Q398.60938 27.190624 399.6875 26.4875Q400.76562 25.784374 402.03125 25.784374Q404.09375 25.784374 405.23438 27.14375Q406.375 28.503124 406.375 31.034374L406.375 31.784374L399.21875 31.784374Q399.25 33.346874 400.125 34.315624Q401.0 35.26875 402.34375 35.26875Q403.3125 35.26875 403.96875 34.878124Q404.64062 34.4875 405.14062 33.846874L406.23438 34.70625Q404.90625 36.753124 402.25 36.753124ZM402.03125 27.26875Q400.9375 27.26875 400.1875 28.065624Q399.45312 28.8625 399.28125 30.3L404.5625 30.3L404.5625 30.159374Q404.48438 28.784374 403.8125 28.034374Q403.15625 27.26875 402.03125 27.26875Z" fill-rule="nonzero"/></svg>